# xmcd
#
# Track frame offsets: 
#        150
#        15235
#        29324
#        45684
#        61978
#        76775
#        88272
#        101318
#        115381
#        132073
#        145869
#        163830
#        175999
#
# Disc length: 2490 seconds
#
# Revision: 0
# Processed by: cddbd v1.5.2PL0 Copyright (c) Steve Scherf et al.
# Submitted via: ExactAudioCopyFreeDBPlugin 1.0
#
DISCID=9f09b80d
DTITLE=Glimra - Glimra
DYEAR=2012
DGENRE=Country
TTITLE0=Jag Ar Hemma Här
TTITLE1=Regnet Faller Ner
TTITLE2=Jag Far Iväg
TTITLE3=För En Stund
TTITLE4=Där Du Ar
TTITLE5=Jag Ville Jag Kunde
TTITLE6=Låt Drömmarna Vara Kvar
TTITLE7=Bara En Ros
TTITLE8=Stopp
TTITLE9=Förändringens Sång
TTITLE10=Ett Steg Till
TTITLE11=Sommarsång
TTITLE12=Gissa Din Gåta
EXTD=
EXTT0=
EXTT1=
EXTT2=
EXTT3=
EXTT4=
EXTT5=
EXTT6=
EXTT7=
EXTT8=
EXTT9=
EXTT10=
EXTT11=
EXTT12=
PLAYORDER=
